<svg width="46" height="46" viewBox="0 0 46 46" fill="none" xmlns="http://www.w3.org/2000/svg">
<g filter="url(#filter0_d)">
<circle cx="21" cy="21" r="15" fill="#3EC5FF"/>
</g>
<path d="M24.696 14.64C25.1013 14.64 25.432 14.7733 25.688 15.04C25.9547 15.3067 26.088 15.6533 26.088 16.08V24.64C26.088 25.0773 25.96 25.4293 25.704 25.696C25.448 25.9627 25.1173 26.096 24.712 26.096C24.232 26.096 23.8693 25.936 23.624 25.616L18.76 19.552V24.64C18.76 25.0773 18.6373 25.4293 18.392 25.696C18.1467 25.9627 17.816 26.096 17.4 26.096C16.9947 26.096 16.664 25.9627 16.408 25.696C16.152 25.4293 16.024 25.0773 16.024 24.64V16.08C16.024 15.6533 16.152 15.3067 16.408 15.04C16.664 14.7733 16.9947 14.64 17.4 14.64C17.8587 14.64 18.216 14.8 18.472 15.12L23.336 21.168V16.08C23.336 15.6427 23.4587 15.296 23.704 15.04C23.96 14.7733 24.2907 14.64 24.696 14.64Z" fill="white"/>
<defs>
<filter id="filter0_d" x="0" y="0" width="46" height="46" filterUnits="userSpaceOnUse" color-interpolation-filters="sRGB">
<feFlood flood-opacity="0" result="BackgroundImageFix"/>
<feColorMatrix in="SourceAlpha" type="matrix" values="0 0 0 0 0 0 0 0 0 0 0 0 0 0 0 0 0 0 127 0" result="hardAlpha"/>
<feOffset dx="2" dy="2"/>
<feGaussianBlur stdDeviation="4"/>
<feColorMatrix type="matrix" values="0 0 0 0 0.241667 0 0 0 0 0.7725 0 0 0 0 1 0 0 0 0.25 0"/>
<feBlend mode="normal" in2="BackgroundImageFix" result="effect1_dropShadow"/>
<feBlend mode="normal" in="SourceGraphic" in2="effect1_dropShadow" result="shape"/>
</filter>
</defs>
</svg>
